PathFileType	4	(X/Y/Z)	Captury_Subj1_walk03.trc
DataRate	CameraRate	NumFrames	NumMarkers	Units	OrigDataRate	OrigDataStartFrame	OrigNumFrames
100.0	100.0	7	47	mm	59.99879837036133	51	121
Frame#	Time		LeftUpLeg_		RightUpLeg_		LeftLeg_		RightLeg_		LeftFoot_		RightFoot_		LeftToeBase_		RightToeBase_		Knee_Lateral_r		Knee_Lateral_l		Ankle_Lateral_r		Ankle_Lateral_l		LeftArm_		LeftForeArm_		LeftHand_		LeftHandEE		RightArm_		RightForeArm_		RightHand_		RightHandEE		Spine_		Spine1_		Spine2_		Spine3_		Spine4_		Spine5_		Spine_x		Spine_y		Spine_z		RASI		LASI		RIPS		LIPS		RTHI		LTHI		RTIB		LTIB		RTOE		LTOE		RHEE		LHEE		RHipAngles		LHipAngles		RKneeAngles		LKneeAngles		RAnkleAngles		LAnkleAngles
			X1	Y1	Z1	X2	Y2	Z2	X3	Y3	Z3	X4	Y4	Z4	X5	Y5	Z5	X6	Y6	Z6	X7	Y7	Z7	X8	Y8	Z8	X9	Y9	Z9	X10	Y10	Z10	X11	Y11	Z11	X12	Y12	Z12	X13	Y13	Z13	X14	Y14	Z14	X15	Y15	Z15	X16	Y16	Z16	X17	Y17	Z17	X18	Y18	Z18	X19	Y19	Z19	X20	Y20	Z20	X21	Y21	Z21	X22	Y22	Z22	X23	Y23	Z23	X24	Y24	Z24	X25	Y25	Z25	X26	Y26	Z26	X27	Y27	Z27	X28	Y28	Z28	X29	Y29	Z29	X30	Y30	Z30	X31	Y31	Z31	X32	Y32	Z32	X33	Y33	Z33	X34	Y34	Z34	X35	Y35	Z35	X36	Y36	Z36	X37	Y37	Z37	X38	Y38	Z38	X39	Y39	Z39	X40	Y40	Z40	X41	Y41	Z41	X42	Y42	Z42	X43	Y43	Z43	X44	Y44	Z44	X45	Y45	Z45	X46	Y46	Z46	X47	Y47	Z47

51	0.50000	757.07568	814.81952	108.71055	712.89948	812.07452	-51.22969	838.29309	425.25830	85.51852	509.66699	469.16333	-51.98326	985.87219	88.31253	78.65850	395.55847	119.41721	-55.98206	876.91956	23.45033	83.18575	273.40201	90.36632	-74.20604	509.75858	466.49905	-97.65795	834.19312	419.32794	130.69933	414.00473	114.83492	-101.44650	999.74384	85.97913	125.88572	710.36285	1294.39270	167.78220	641.47046	1041.42285	255.13702	481.51810	871.44116	260.25476	429.82272	805.11316	246.55829	726.68085	1292.54041	-93.73280	804.61523	1035.84656	-160.10506	851.34473	814.79034	-218.88629	878.10876	733.90308	-218.30513	754.47339	904.02795	21.80371	739.35876	1000.18066	25.56095	750.37415	1070.19653	24.25759	782.06653	1154.81177	21.11051	774.99298	1286.56543	28.28772	4185915979477856304811803089567744.00000	0.00000	4185920931238013446332902686064640.00000	742.08246	903.25800	-23.05779	755.39917	950.55444	20.74947	799.33197	902.85510	9.43370	609.08453	876.61707	-82.46025	683.43024	881.23682	186.70879	770.92029	874.79236	-20.87495	790.74585	876.02429	50.90345	620.49066	646.44617	-116.35658	792.06830	624.79132	162.36163	445.52850	315.55945	-90.90819	906.06677	213.12801	112.56306	202.53537	86.86723	-83.28192	805.59198	18.26214	81.71782	433.44275	50.48553	-59.06393	1042.17883	33.90649	86.77278	-29.69710	5.86754	14.36092	14.22796	-3.67345	-21.53628	-6.77338	0.66972	0.00646	-6.24601	0.62081	0.26570	15.44740	5.26728	9.84743	-8.85954	5.66182	12.74838
52	0.51000	742.49291	812.97246	107.53083	698.10393	809.02754	-52.32227	828.81270	424.51949	84.57504	494.47420	466.35211	-52.33417	983.92347	91.02368	78.76566	374.88746	118.46531	-55.50289	876.73033	23.33233	83.04810	252.20483	91.75748	-73.67111	494.63950	463.54313	-97.99979	824.67540	418.53771	129.74563	393.35686	113.38091	-100.90262	997.68694	89.15652	126.04360	695.56163	1292.09341	166.77322	625.53809	1039.40210	254.02946	462.83652	872.04958	257.96380	409.47949	807.11743	244.06840	711.43765	1290.30117	-94.90151	792.22119	1034.53794	-161.41426	841.44967	814.10798	-220.46880	869.46809	733.65684	-219.60032	739.47690	901.59474	20.04292	724.16830	997.69435	23.37975	735.12959	1067.67927	21.98264	766.86079	1152.24734	18.98379	759.96826	1283.93589	26.79973	4185915979477856304811803089567744.00000	0.00000	4185920931238013446332902686064640.00000	727.02628	900.48823	-24.79414	740.24840	948.11519	18.68069	784.32164	900.48693	7.61717	594.03477	873.02175	-83.82913	668.73848	879.66079	185.19323	755.96035	872.13257	-22.46484	775.88135	873.90298	49.27446	605.61213	643.30137	-117.08052	779.80997	623.42623	161.28505	428.02252	313.66471	-90.92910	901.24667	214.05077	112.20853	181.28963	89.68525	-82.73066	805.57286	16.38809	81.32518	411.42488	48.81651	-58.46757	1041.60308	38.15162	87.19248	-29.97425	6.18762	14.37455	14.79682	-3.83724	-21.81382	-5.93599	0.66149	0.00285	-6.79576	0.65123	0.33111	15.24187	5.10503	9.90794	-8.63203	5.65068	12.74372
53	0.52000	727.51947	811.24982	106.28179	682.93910	806.30563	-53.49283	818.54540	423.84155	83.61421	479.26765	463.65641	-52.66330	981.78748	94.23623	78.94866	355.65775	117.14061	-54.99385	876.73518	23.27668	82.88558	232.54312	92.27750	-72.94956	479.46786	460.71447	-98.32053	814.34420	417.81254	128.77258	374.12108	111.64651	-100.34992	995.38859	92.89922	126.29072	680.77139	1289.85615	165.62653	609.79209	1037.39211	252.77247	444.55201	872.50571	255.72845	389.49006	809.04863	241.65139	696.17131	1288.19150	-96.16713	779.57384	1033.29280	-162.79379	831.09504	813.44288	-222.07797	860.22408	733.38748	-220.83157	724.23849	899.36232	18.28741	708.84280	995.41963	21.25951	719.80599	1065.36118	19.77986	751.61779	1149.86155	16.90726	744.94290	1281.48743	25.27041	4185915979477856304811803089567744.00000	0.00000	4185920931238013446332902686064640.00000	711.73418	897.97554	-26.52764	724.92616	945.87607	16.65614	769.06981	898.26196	5.81279	578.71775	869.93461	-85.23987	653.74354	878.25530	183.65039	740.72125	869.68442	-24.07064	760.72811	871.90327	47.63344	590.47711	640.40288	-117.83943	766.93820	622.15881	160.16186	411.10145	311.62543	-90.90967	896.00420	215.25596	111.87655	161.58168	91.33575	-81.90016	805.83369	14.23015	80.83923	391.12854	46.93025	-57.90446	1041.02791	43.19775	87.75338	-30.09432	6.41324	14.37519	15.40223	-3.93746	-22.09680	-5.27905	0.65900	-0.00198	-7.51771	0.65554	0.39359	15.03444	4.92890	9.95859	-8.25526	5.63815	12.73370
54	0.53000	711.76471	809.77600	104.89410	667.03569	804.23386	-54.81932	806.70430	423.28535	82.61872	464.03356	461.19176	-52.94888	979.27692	98.45157	79.28336	339.31066	115.07029	-54.42507	877.12816	23.34572	82.67330	215.95232	91.05525	-71.85480	464.19108	458.14033	-98.59909	802.38602	417.21749	127.76083	357.70946	109.35132	-99.77955	992.60732	97.77258	126.71634	666.00309	1287.74297	164.20439	594.41885	1035.40366	251.21666	427.06161	872.65725	253.60432	370.20827	810.83369	239.38015	680.85872	1286.34097	-97.62659	766.41987	1032.17461	-164.31396	819.82128	812.81230	-223.74047	849.77341	733.07187	-221.93495	708.51621	897.53148	16.54248	693.24723	993.56810	19.26120	704.32432	1063.44143	17.72142	736.30024	1147.83303	14.93114	729.91624	1279.40112	23.65840	4185915979477856304811803089567744.00000	0.00000	4185920931238013446332902686064640.00000	695.97023	895.97698	-28.25541	709.26097	944.03726	14.72007	753.33497	896.32343	4.03272	562.86624	867.86379	-86.73432	638.14226	877.19087	182.05299	724.92383	867.65957	-25.70825	744.99741	870.14678	45.96837	574.82910	637.99702	-118.66826	752.83951	621.08673	158.94547	395.35021	309.29706	-90.80958	889.91700	217.02602	111.58964	144.94930	90.65118	-80.51117	806.65441	11.50441	80.16667	374.27524	44.60948	-57.40785	1040.45391	49.84590	88.59669	-29.90023	6.44993	14.34985	16.08074	-3.91052	-22.39065	-4.98304	0.66803	-0.00922	-8.58403	0.60762	0.45023	14.82321	4.72498	9.98949	-7.58000	5.62282	12.71297
55	0.54000	696.25902	808.60219	103.37644	651.27155	802.52638	-56.24473	793.40392	422.61710	81.72487	448.86147	459.14185	-53.36009	975.74856	103.22091	79.14743	325.57504	112.51101	-53.81562	877.34570	23.39041	82.83078	202.13746	88.38651	-70.51126	448.93881	456.00613	-99.00475	789.28180	416.63884	126.89623	343.88239	106.71313	-99.19725	989.05770	103.41138	126.58649	651.17246	1285.96177	162.67925	579.35635	1033.58645	249.39605	410.26277	872.63818	251.48236	351.92705	812.19121	237.33055	665.13103	1284.54121	-99.19603	752.77123	1031.09041	-165.90112	807.59194	812.09464	-225.39284	838.43473	732.69934	-223.42817	692.80106	896.07762	14.75561	677.53794	992.02239	17.27803	688.66176	1061.78711	15.65703	720.74896	1146.03528	12.84619	714.62744	1277.50144	21.81139	4185915979477856304811803089567744.00000	0.00000	4185920931238013446332902686064640.00000	680.18257	894.37341	-30.01640	693.50883	942.57803	12.78620	737.59999	894.86277	2.17566	547.00342	865.98041	-88.18689	622.71444	876.20564	180.44517	709.16097	866.08511	-27.42832	729.35057	868.81182	44.20690	559.23070	636.01416	-119.61347	738.64095	620.29404	157.74935	380.72294	306.88643	-90.74001	882.88506	219.11622	111.22128	131.08564	87.96450	-78.75419	807.53760	8.26985	80.34662	360.57441	42.07278	-56.92911	1039.13455	57.65275	88.68368	-29.83661	6.49359	14.31266	16.38743	-3.89080	-22.28485	-5.12393	0.64730	-0.01738	-9.99122	0.50651	0.48338	14.63744	4.51528	10.01563	-6.57956	5.61608	12.68670
56	0.55000	680.87787	807.57837	101.79379	635.57703	801.00104	-57.71960	779.37390	421.89282	80.88184	433.72037	457.29932	-53.83413	971.71130	108.26724	78.77618	313.14514	109.70724	-53.18584	877.47552	23.42293	83.17314	189.71057	84.99452	-69.04333	433.69879	454.09189	-99.47398	775.60455	416.06839	126.10519	331.34760	103.90343	-98.60899	985.12390	109.43290	126.17892	636.31067	1284.34656	161.10262	564.44922	1031.85486	247.44304	393.80972	872.53381	249.36150	334.14612	813.33496	235.39177	649.19580	1282.76685	-100.82047	738.87524	1030.02319	-167.52177	794.88483	811.33344	-227.04015	826.65204	732.29834	-225.11630	677.08948	894.81226	12.94779	661.77179	990.62958	15.30242	672.90875	1060.26550	13.58967	705.08081	1144.35291	10.70684	699.20758	1275.69507	19.84688	4185915979477856304811803089567744.00000	0.00000	4185920931238013446332902686064640.00000	664.38306	892.96735	-31.79399	677.71320	941.30859	10.85342	721.86493	893.64105	0.28012	531.13495	864.19073	-89.61852	607.37335	875.26001	178.83214	693.41541	864.73584	-29.18962	713.74567	867.68762	42.39723	543.65710	634.24280	-120.61685	724.39246	619.64105	156.56337	366.65765	304.43466	-90.68569	875.38074	221.36649	110.81220	118.60635	84.27676	-76.81322	808.45203	4.78089	80.95280	348.44983	39.42812	-56.45929	1037.44250	66.03896	88.39250	-29.83824	6.54072	14.26956	16.50822	-3.87469	-21.97923	-5.48326	0.61171	-0.02600	-11.56883	0.37882	0.50477	14.46440	4.30269	10.03940	-5.41653	5.61363	12.65764
57	0.56000	664.16107	806.96947	100.17049	619.14441	799.84769	-59.39918	763.34778	421.42156	80.01666	418.23527	455.60663	-54.48373	965.85486	114.41995	79.14674	303.98293	105.93311	-52.64262	877.06907	24.11426	83.67897	180.88605	79.19477	-67.71817	418.15303	452.30313	-100.11655	759.71210	415.71053	125.26518	322.15045	100.31686	-98.10303	978.94948	116.65706	126.59111	621.58437	1283.36951	159.40630	550.03962	1030.53203	244.99146	378.40634	872.29277	247.33856	317.96337	813.83645	233.62381	633.43298	1281.74475	-102.47747	724.16700	1029.40671	-169.28130	780.81002	810.90596	-228.89170	813.00303	732.04836	-226.80962	660.47555	893.91255	11.03626	645.26860	989.72822	13.11563	656.58589	1059.30757	11.33753	689.08435	1143.24424	8.49677	683.83683	1274.56992	17.86863	4185915979477856304811803089567744.00000	0.00000	4185920931238013446332902686064640.00000	647.84885	891.91497	-33.72130	661.07462	940.40208	8.79238	705.27382	892.72802	-1.54900	514.72018	862.86901	-91.68549	590.48022	874.85450	176.85987	676.89373	863.71005	-30.97462	697.09644	866.90616	40.63748	527.58561	632.70786	-121.80554	708.18795	619.26382	155.32086	353.85034	301.48020	-90.76884	865.85515	224.35053	110.71940	109.76149	77.36889	-75.04693	809.37338	1.39477	81.32476	340.40454	36.24056	-56.05315	1033.92087	76.37788	89.18075	-29.67822	6.46971	14.10147	16.56958	-3.95730	-21.74357	-6.36631	0.58557	-0.03232	-13.35835	0.28336	0.48390	14.37033	4.11037	10.08144	-3.79389	5.63078	12.60192
